<mxfile host="app.diagrams.net" modified="2024-05-17T00:54:00.360Z" agent="Mozilla/5.0 (Windows NT 10.0; Win64; x64) AppleWebKit/537.36 (KHTML, like Gecko) Chrome/125.0.0.0 Safari/537.36" etag="GcNeaa0zZab559waeW_m" version="24.4.3" type="github" pages="2">
  <diagram name="Página-1" id="mnio-C2Lh0RUzU-9WqNZ" />
  <diagram id="aJnypV2JXwQLvggpxa9R" name="Página-2">
    <mxGraphModel dx="2333" dy="1271" grid="1" gridSize="10" guides="1" tooltips="1" connect="1" arrows="1" fold="1" page="1" pageScale="1" pageWidth="827" pageHeight="1169" math="0" shadow="0">
      <root>
        <mxCell id="0" />
        <mxCell id="1" parent="0" />
        <mxCell id="ewwvXswswTvvcqbO_6BZ-2" value="com&lt;div&gt;&lt;br&gt;&lt;/div&gt;" style="shape=folder;fontStyle=1;tabWidth=110;tabHeight=30;tabPosition=left;html=1;boundedLbl=1;labelInHeader=1;container=1;collapsible=0;recursiveResize=0;whiteSpace=wrap;" vertex="1" parent="1">
          <mxGeometry x="60" y="130" width="1560" height="980" as="geometry" />
        </mxCell>
        <mxCell id="ewwvXswswTvvcqbO_6BZ-4" value="&lt;div&gt;TiendaChepito&lt;/div&gt;&lt;div&gt;&lt;br&gt;&lt;/div&gt;" style="shape=folder;fontStyle=1;tabWidth=110;tabHeight=30;tabPosition=left;html=1;boundedLbl=1;labelInHeader=1;container=1;collapsible=0;recursiveResize=0;whiteSpace=wrap;" vertex="1" parent="ewwvXswswTvvcqbO_6BZ-2">
          <mxGeometry x="10" y="50" width="1540" height="920" as="geometry" />
        </mxCell>
        <mxCell id="ewwvXswswTvvcqbO_6BZ-8" value="TiendaOnline&lt;div&gt;&lt;br&gt;&lt;/div&gt;" style="shape=folder;fontStyle=1;tabWidth=110;tabHeight=30;tabPosition=left;html=1;boundedLbl=1;labelInHeader=1;container=1;collapsible=0;recursiveResize=0;whiteSpace=wrap;" vertex="1" parent="ewwvXswswTvvcqbO_6BZ-4">
          <mxGeometry x="10" y="40" width="1520" height="870" as="geometry" />
        </mxCell>
        <mxCell id="ewwvXswswTvvcqbO_6BZ-14" value="&lt;div&gt;Aplicacion&lt;/div&gt;&lt;div&gt;&lt;br&gt;&lt;/div&gt;" style="shape=folder;fontStyle=1;tabWidth=110;tabHeight=30;tabPosition=left;html=1;boundedLbl=1;labelInHeader=1;container=1;collapsible=0;recursiveResize=0;whiteSpace=wrap;" vertex="1" parent="ewwvXswswTvvcqbO_6BZ-8">
          <mxGeometry x="230" y="40" width="1280" height="510" as="geometry" />
        </mxCell>
        <mxCell id="ewwvXswswTvvcqbO_6BZ-25" value="PrimaryPorts" style="shape=folder;fontStyle=1;tabWidth=110;tabHeight=30;tabPosition=left;html=1;boundedLbl=1;labelInHeader=1;container=1;collapsible=0;recursiveResize=0;whiteSpace=wrap;" vertex="1" parent="ewwvXswswTvvcqbO_6BZ-14">
          <mxGeometry x="10" y="40" width="310" height="450" as="geometry" />
        </mxCell>
        <mxCell id="ewwvXswswTvvcqbO_6BZ-35" value="DTO&lt;div&gt;&lt;br&gt;&lt;/div&gt;" style="shape=folder;fontStyle=1;tabWidth=110;tabHeight=30;tabPosition=left;html=1;boundedLbl=1;labelInHeader=1;container=1;collapsible=0;recursiveResize=0;whiteSpace=wrap;" vertex="1" parent="ewwvXswswTvvcqbO_6BZ-25">
          <mxGeometry x="60" y="120" width="80" height="60" as="geometry" />
        </mxCell>
        <mxCell id="ewwvXswswTvvcqbO_6BZ-37" value="&lt;div&gt;Mappers&lt;/div&gt;" style="shape=folder;fontStyle=1;tabWidth=110;tabHeight=30;tabPosition=left;html=1;boundedLbl=1;labelInHeader=1;container=1;collapsible=0;recursiveResize=0;whiteSpace=wrap;" vertex="1" parent="ewwvXswswTvvcqbO_6BZ-25">
          <mxGeometry x="190" y="40" width="110" height="120" as="geometry" />
        </mxCell>
        <mxCell id="ewwvXswswTvvcqbO_6BZ-58" value="&lt;div&gt;Concrete&lt;/div&gt;" style="shape=folder;fontStyle=1;tabWidth=110;tabHeight=30;tabPosition=left;html=1;boundedLbl=1;labelInHeader=1;container=1;collapsible=0;recursiveResize=0;whiteSpace=wrap;" vertex="1" parent="ewwvXswswTvvcqbO_6BZ-37">
          <mxGeometry x="14" y="35" width="76" height="65" as="geometry" />
        </mxCell>
        <mxCell id="ewwvXswswTvvcqbO_6BZ-36" value="&lt;div&gt;Interator&lt;/div&gt;" style="shape=folder;fontStyle=1;tabWidth=110;tabHeight=30;tabPosition=left;html=1;boundedLbl=1;labelInHeader=1;container=1;collapsible=0;recursiveResize=0;whiteSpace=wrap;" vertex="1" parent="ewwvXswswTvvcqbO_6BZ-25">
          <mxGeometry x="110" y="320" width="110" height="120" as="geometry" />
        </mxCell>
        <mxCell id="ewwvXswswTvvcqbO_6BZ-57" value="&lt;div&gt;impl&lt;/div&gt;" style="shape=folder;fontStyle=1;tabWidth=110;tabHeight=30;tabPosition=left;html=1;boundedLbl=1;labelInHeader=1;container=1;collapsible=0;recursiveResize=0;whiteSpace=wrap;" vertex="1" parent="ewwvXswswTvvcqbO_6BZ-36">
          <mxGeometry x="14" y="45" width="60" height="65" as="geometry" />
        </mxCell>
        <mxCell id="ewwvXswswTvvcqbO_6BZ-63" style="edgeStyle=orthogonalEdgeStyle;rounded=0;orthogonalLoop=1;jettySize=auto;html=1;dashed=1;dashPattern=8 8;" edge="1" parent="ewwvXswswTvvcqbO_6BZ-25" source="ewwvXswswTvvcqbO_6BZ-57" target="ewwvXswswTvvcqbO_6BZ-58">
          <mxGeometry relative="1" as="geometry" />
        </mxCell>
        <mxCell id="ewwvXswswTvvcqbO_6BZ-85" style="edgeStyle=orthogonalEdgeStyle;rounded=0;orthogonalLoop=1;jettySize=auto;html=1;entryX=0;entryY=0;entryDx=80;entryDy=30;entryPerimeter=0;dashed=1;endArrow=open;endFill=0;dashPattern=8 8;" edge="1" parent="ewwvXswswTvvcqbO_6BZ-25" source="ewwvXswswTvvcqbO_6BZ-58" target="ewwvXswswTvvcqbO_6BZ-35">
          <mxGeometry relative="1" as="geometry" />
        </mxCell>
        <mxCell id="ewwvXswswTvvcqbO_6BZ-34" value="&lt;div&gt;UseCase&lt;/div&gt;&lt;div&gt;&lt;br&gt;&lt;/div&gt;" style="shape=folder;fontStyle=1;tabWidth=110;tabHeight=30;tabPosition=left;html=1;boundedLbl=1;labelInHeader=1;container=1;collapsible=0;recursiveResize=0;whiteSpace=wrap;" vertex="1" parent="ewwvXswswTvvcqbO_6BZ-14">
          <mxGeometry x="330" y="40" width="500" height="450" as="geometry" />
        </mxCell>
        <mxCell id="ewwvXswswTvvcqbO_6BZ-76" value="&amp;lt;DOMAIN&amp;gt;" style="shape=folder;fontStyle=1;tabWidth=110;tabHeight=30;tabPosition=left;html=1;boundedLbl=1;labelInHeader=1;container=1;collapsible=0;recursiveResize=0;whiteSpace=wrap;" vertex="1" parent="ewwvXswswTvvcqbO_6BZ-34">
          <mxGeometry x="10" y="40" width="480" height="400" as="geometry" />
        </mxCell>
        <mxCell id="ewwvXswswTvvcqbO_6BZ-77" value="&lt;div&gt;IMPL&lt;/div&gt;" style="shape=folder;fontStyle=1;tabWidth=110;tabHeight=30;tabPosition=left;html=1;boundedLbl=1;labelInHeader=1;container=1;collapsible=0;recursiveResize=0;whiteSpace=wrap;" vertex="1" parent="ewwvXswswTvvcqbO_6BZ-76">
          <mxGeometry x="20" y="40" width="136" height="135" as="geometry" />
        </mxCell>
        <mxCell id="ewwvXswswTvvcqbO_6BZ-79" value="&lt;div&gt;RULES&lt;/div&gt;" style="shape=folder;fontStyle=1;tabWidth=110;tabHeight=30;tabPosition=left;html=1;boundedLbl=1;labelInHeader=1;container=1;collapsible=0;recursiveResize=0;whiteSpace=wrap;" vertex="1" parent="ewwvXswswTvvcqbO_6BZ-76">
          <mxGeometry x="8" y="250" width="412" height="140" as="geometry" />
        </mxCell>
        <mxCell id="ewwvXswswTvvcqbO_6BZ-78" value="TRANSACTION" style="shape=folder;fontStyle=1;tabWidth=110;tabHeight=30;tabPosition=left;html=1;boundedLbl=1;labelInHeader=1;container=1;collapsible=0;recursiveResize=0;whiteSpace=wrap;" vertex="1" parent="ewwvXswswTvvcqbO_6BZ-79">
          <mxGeometry x="10" y="45" width="150" height="85" as="geometry" />
        </mxCell>
        <mxCell id="ewwvXswswTvvcqbO_6BZ-90" value="DOMAIN" style="shape=folder;fontStyle=1;tabWidth=110;tabHeight=30;tabPosition=left;html=1;boundedLbl=1;labelInHeader=1;container=1;collapsible=0;recursiveResize=0;whiteSpace=wrap;" vertex="1" parent="ewwvXswswTvvcqbO_6BZ-79">
          <mxGeometry x="240" y="45" width="152" height="85" as="geometry" />
        </mxCell>
        <mxCell id="ewwvXswswTvvcqbO_6BZ-91" style="edgeStyle=orthogonalEdgeStyle;rounded=0;orthogonalLoop=1;jettySize=auto;html=1;entryX=0;entryY=0;entryDx=55;entryDy=0;entryPerimeter=0;dashed=1;dashPattern=8 8;" edge="1" parent="ewwvXswswTvvcqbO_6BZ-76" source="ewwvXswswTvvcqbO_6BZ-77" target="ewwvXswswTvvcqbO_6BZ-79">
          <mxGeometry relative="1" as="geometry" />
        </mxCell>
        <mxCell id="ewwvXswswTvvcqbO_6BZ-33" value="Secundary&lt;span style=&quot;background-color: initial;&quot;&gt;Ports&lt;/span&gt;" style="shape=folder;fontStyle=1;tabWidth=110;tabHeight=30;tabPosition=left;html=1;boundedLbl=1;labelInHeader=1;container=1;collapsible=0;recursiveResize=0;whiteSpace=wrap;" vertex="1" parent="ewwvXswswTvvcqbO_6BZ-14">
          <mxGeometry x="880" y="50" width="387" height="440" as="geometry" />
        </mxCell>
        <mxCell id="ewwvXswswTvvcqbO_6BZ-68" value="ENTITY" style="shape=folder;fontStyle=1;tabWidth=110;tabHeight=30;tabPosition=left;html=1;boundedLbl=1;labelInHeader=1;container=1;collapsible=0;recursiveResize=0;whiteSpace=wrap;" vertex="1" parent="ewwvXswswTvvcqbO_6BZ-33">
          <mxGeometry x="10" y="40" width="110" height="120" as="geometry" />
        </mxCell>
        <mxCell id="ewwvXswswTvvcqbO_6BZ-66" value="&lt;div&gt;Mappers&lt;/div&gt;" style="shape=folder;fontStyle=1;tabWidth=110;tabHeight=30;tabPosition=left;html=1;boundedLbl=1;labelInHeader=1;container=1;collapsible=0;recursiveResize=0;whiteSpace=wrap;" vertex="1" parent="ewwvXswswTvvcqbO_6BZ-33">
          <mxGeometry x="130" y="160" width="150" height="190" as="geometry" />
        </mxCell>
        <mxCell id="ewwvXswswTvvcqbO_6BZ-67" value="&lt;div&gt;Concrete&lt;/div&gt;" style="shape=folder;fontStyle=1;tabWidth=110;tabHeight=30;tabPosition=left;html=1;boundedLbl=1;labelInHeader=1;container=1;collapsible=0;recursiveResize=0;whiteSpace=wrap;" vertex="1" parent="ewwvXswswTvvcqbO_6BZ-66">
          <mxGeometry x="14" y="35" width="126" height="145" as="geometry" />
        </mxCell>
        <mxCell id="ewwvXswswTvvcqbO_6BZ-70" value="&lt;div&gt;impl&lt;/div&gt;" style="shape=folder;fontStyle=1;tabWidth=110;tabHeight=30;tabPosition=left;html=1;boundedLbl=1;labelInHeader=1;container=1;collapsible=0;recursiveResize=0;whiteSpace=wrap;" vertex="1" parent="ewwvXswswTvvcqbO_6BZ-67">
          <mxGeometry x="16" y="40" width="94" height="90" as="geometry" />
        </mxCell>
        <mxCell id="ewwvXswswTvvcqbO_6BZ-64" value="&lt;div&gt;REPOSITORY&lt;/div&gt;" style="shape=folder;fontStyle=1;tabWidth=110;tabHeight=30;tabPosition=left;html=1;boundedLbl=1;labelInHeader=1;container=1;collapsible=0;recursiveResize=0;whiteSpace=wrap;" vertex="1" parent="ewwvXswswTvvcqbO_6BZ-33">
          <mxGeometry x="10" y="310" width="110" height="120" as="geometry" />
        </mxCell>
        <mxCell id="ewwvXswswTvvcqbO_6BZ-83" style="edgeStyle=orthogonalEdgeStyle;rounded=0;orthogonalLoop=1;jettySize=auto;html=1;entryX=0;entryY=0;entryDx=110;entryDy=52.5;entryPerimeter=0;endArrow=open;endFill=0;dashed=1;dashPattern=8 8;" edge="1" parent="ewwvXswswTvvcqbO_6BZ-33" source="ewwvXswswTvvcqbO_6BZ-70" target="ewwvXswswTvvcqbO_6BZ-68">
          <mxGeometry relative="1" as="geometry">
            <Array as="points">
              <mxPoint x="290" y="280" />
              <mxPoint x="290" y="93" />
            </Array>
          </mxGeometry>
        </mxCell>
        <mxCell id="ewwvXswswTvvcqbO_6BZ-81" value="&lt;div&gt;&lt;br&gt;&lt;/div&gt;&lt;div&gt;&lt;br&gt;&lt;/div&gt;&lt;div&gt;&lt;br&gt;&lt;/div&gt;&lt;div&gt;&lt;br&gt;&lt;/div&gt;&lt;div&gt;&lt;br&gt;&lt;/div&gt;&lt;div&gt;&lt;br&gt;&lt;/div&gt;&lt;div&gt;&lt;br&gt;&lt;/div&gt;&lt;div&gt;&lt;br&gt;&lt;/div&gt;&lt;div&gt;&lt;br&gt;&lt;/div&gt;&lt;div&gt;&lt;br&gt;&lt;/div&gt;&lt;div&gt;&lt;br&gt;&lt;/div&gt;&lt;div&gt;&lt;br&gt;&lt;/div&gt;&lt;div&gt;&lt;br&gt;&lt;/div&gt;&lt;div&gt;&lt;br&gt;&lt;/div&gt;&lt;div&gt;&lt;br&gt;&lt;/div&gt;&lt;div&gt;&lt;br&gt;&lt;/div&gt;&lt;div&gt;&lt;br&gt;&lt;/div&gt;&lt;div&gt;&lt;br&gt;&lt;/div&gt;&lt;div&gt;&lt;br&gt;&lt;/div&gt;&lt;div&gt;&lt;br&gt;&lt;/div&gt;&lt;div&gt;&lt;br&gt;&lt;/div&gt;&lt;div&gt;&lt;br&gt;&lt;/div&gt;&lt;div&gt;&lt;br&gt;&lt;/div&gt;&lt;div&gt;&lt;br&gt;&lt;/div&gt;&lt;div&gt;&lt;br&gt;&lt;/div&gt;&lt;div&gt;&lt;br&gt;&lt;/div&gt;" style="edgeStyle=orthogonalEdgeStyle;rounded=0;orthogonalLoop=1;jettySize=auto;html=1;entryX=0;entryY=0;entryDx=0;entryDy=215;entryPerimeter=0;dashed=1;endArrow=open;endFill=0;" edge="1" parent="ewwvXswswTvvcqbO_6BZ-14" source="ewwvXswswTvvcqbO_6BZ-57" target="ewwvXswswTvvcqbO_6BZ-76">
          <mxGeometry relative="1" as="geometry" />
        </mxCell>
        <mxCell id="ewwvXswswTvvcqbO_6BZ-82" style="edgeStyle=orthogonalEdgeStyle;rounded=0;orthogonalLoop=1;jettySize=auto;html=1;endArrow=open;endFill=0;dashed=1;dashPattern=8 8;" edge="1" parent="ewwvXswswTvvcqbO_6BZ-14" source="ewwvXswswTvvcqbO_6BZ-77" target="ewwvXswswTvvcqbO_6BZ-67">
          <mxGeometry relative="1" as="geometry" />
        </mxCell>
        <mxCell id="ewwvXswswTvvcqbO_6BZ-10" value="Infraestructure&lt;div&gt;&lt;br&gt;&lt;/div&gt;" style="shape=folder;fontStyle=1;tabWidth=110;tabHeight=30;tabPosition=left;html=1;boundedLbl=1;labelInHeader=1;container=1;collapsible=0;recursiveResize=0;whiteSpace=wrap;" vertex="1" parent="ewwvXswswTvvcqbO_6BZ-8">
          <mxGeometry x="20" y="40" width="170" height="160" as="geometry" />
        </mxCell>
        <mxCell id="ewwvXswswTvvcqbO_6BZ-20" value="&lt;div&gt;Adapters&lt;/div&gt;&lt;div&gt;&lt;br&gt;&lt;/div&gt;" style="shape=folder;fontStyle=1;tabWidth=110;tabHeight=30;tabPosition=left;html=1;boundedLbl=1;labelInHeader=1;container=1;collapsible=0;recursiveResize=0;whiteSpace=wrap;" vertex="1" parent="ewwvXswswTvvcqbO_6BZ-10">
          <mxGeometry x="10" y="40" width="150" height="110" as="geometry" />
        </mxCell>
        <mxCell id="ewwvXswswTvvcqbO_6BZ-21" value="&lt;div&gt;Controller&lt;/div&gt;&lt;div&gt;&lt;br&gt;&lt;/div&gt;" style="shape=folder;fontStyle=1;tabWidth=110;tabHeight=30;tabPosition=left;html=1;boundedLbl=1;labelInHeader=1;container=1;collapsible=0;recursiveResize=0;whiteSpace=wrap;" vertex="1" parent="ewwvXswswTvvcqbO_6BZ-20">
          <mxGeometry x="10" y="40" width="130" height="60" as="geometry" />
        </mxCell>
        <mxCell id="ewwvXswswTvvcqbO_6BZ-16" value="&lt;div&gt;INITIALIZER&lt;/div&gt;" style="shape=folder;fontStyle=1;tabWidth=110;tabHeight=30;tabPosition=left;html=1;boundedLbl=1;labelInHeader=1;container=1;collapsible=0;recursiveResize=0;whiteSpace=wrap;" vertex="1" parent="ewwvXswswTvvcqbO_6BZ-8">
          <mxGeometry x="20" y="480" width="130" height="120" as="geometry" />
        </mxCell>
        <mxCell id="ewwvXswswTvvcqbO_6BZ-19" value="&lt;div&gt;CROS&lt;span style=&quot;background-color: initial;&quot;&gt;SCUTTING&lt;/span&gt;&lt;/div&gt;" style="shape=folder;fontStyle=1;tabWidth=110;tabHeight=30;tabPosition=left;html=1;boundedLbl=1;labelInHeader=1;container=1;collapsible=0;recursiveResize=0;whiteSpace=wrap;" vertex="1" parent="ewwvXswswTvvcqbO_6BZ-8">
          <mxGeometry x="159" y="560" width="371" height="300" as="geometry" />
        </mxCell>
        <mxCell id="ewwvXswswTvvcqbO_6BZ-18" value="&lt;div&gt;Domain&lt;/div&gt;" style="shape=folder;fontStyle=1;tabWidth=110;tabHeight=30;tabPosition=left;html=1;boundedLbl=1;labelInHeader=1;container=1;collapsible=0;recursiveResize=0;whiteSpace=wrap;" vertex="1" parent="ewwvXswswTvvcqbO_6BZ-8">
          <mxGeometry x="890" y="560" width="130" height="120" as="geometry" />
        </mxCell>
        <mxCell id="ewwvXswswTvvcqbO_6BZ-22" value="Infraestructure&lt;div&gt;&lt;br&gt;&lt;/div&gt;" style="shape=folder;fontStyle=1;tabWidth=110;tabHeight=30;tabPosition=left;html=1;boundedLbl=1;labelInHeader=1;container=1;collapsible=0;recursiveResize=0;whiteSpace=wrap;" vertex="1" parent="ewwvXswswTvvcqbO_6BZ-8">
          <mxGeometry x="1340" y="560" width="170" height="160" as="geometry" />
        </mxCell>
        <mxCell id="ewwvXswswTvvcqbO_6BZ-23" value="&lt;div&gt;Adapters&lt;/div&gt;&lt;div&gt;&lt;br&gt;&lt;/div&gt;" style="shape=folder;fontStyle=1;tabWidth=110;tabHeight=30;tabPosition=left;html=1;boundedLbl=1;labelInHeader=1;container=1;collapsible=0;recursiveResize=0;whiteSpace=wrap;" vertex="1" parent="ewwvXswswTvvcqbO_6BZ-22">
          <mxGeometry x="10" y="40" width="150" height="110" as="geometry" />
        </mxCell>
        <mxCell id="ewwvXswswTvvcqbO_6BZ-24" value="&lt;div&gt;Repository&lt;/div&gt;&lt;div&gt;&lt;br&gt;&lt;/div&gt;" style="shape=folder;fontStyle=1;tabWidth=110;tabHeight=30;tabPosition=left;html=1;boundedLbl=1;labelInHeader=1;container=1;collapsible=0;recursiveResize=0;whiteSpace=wrap;" vertex="1" parent="ewwvXswswTvvcqbO_6BZ-23">
          <mxGeometry x="10" y="40" width="130" height="60" as="geometry" />
        </mxCell>
        <mxCell id="ewwvXswswTvvcqbO_6BZ-59" style="edgeStyle=orthogonalEdgeStyle;rounded=0;orthogonalLoop=1;jettySize=auto;html=1;dashed=1;dashPattern=8 8;" edge="1" parent="ewwvXswswTvvcqbO_6BZ-8" source="ewwvXswswTvvcqbO_6BZ-21" target="ewwvXswswTvvcqbO_6BZ-35">
          <mxGeometry relative="1" as="geometry">
            <Array as="points">
              <mxPoint x="105" y="230" />
              <mxPoint x="290" y="230" />
            </Array>
          </mxGeometry>
        </mxCell>
        <mxCell id="ewwvXswswTvvcqbO_6BZ-62" style="edgeStyle=orthogonalEdgeStyle;rounded=0;orthogonalLoop=1;jettySize=auto;html=1;entryX=0;entryY=0;entryDx=0;entryDy=97.5;entryPerimeter=0;dashed=1;dashPattern=8 8;" edge="1" parent="ewwvXswswTvvcqbO_6BZ-8" source="ewwvXswswTvvcqbO_6BZ-21" target="ewwvXswswTvvcqbO_6BZ-36">
          <mxGeometry relative="1" as="geometry">
            <Array as="points">
              <mxPoint x="105" y="470" />
              <mxPoint x="350" y="470" />
            </Array>
          </mxGeometry>
        </mxCell>
        <mxCell id="ewwvXswswTvvcqbO_6BZ-84" style="edgeStyle=orthogonalEdgeStyle;rounded=0;orthogonalLoop=1;jettySize=auto;html=1;dashed=1;endArrow=open;endFill=0;dashPattern=8 8;" edge="1" parent="ewwvXswswTvvcqbO_6BZ-8" source="ewwvXswswTvvcqbO_6BZ-70">
          <mxGeometry relative="1" as="geometry">
            <mxPoint x="1020" y="650" as="targetPoint" />
            <Array as="points">
              <mxPoint x="1220" y="650" />
              <mxPoint x="1020" y="650" />
            </Array>
          </mxGeometry>
        </mxCell>
        <mxCell id="ewwvXswswTvvcqbO_6BZ-86" style="edgeStyle=orthogonalEdgeStyle;rounded=0;orthogonalLoop=1;jettySize=auto;html=1;entryX=0;entryY=0;entryDx=0;entryDy=75;entryPerimeter=0;dashed=1;endArrow=open;endFill=0;dashPattern=8 8;" edge="1" parent="ewwvXswswTvvcqbO_6BZ-8" source="ewwvXswswTvvcqbO_6BZ-58" target="ewwvXswswTvvcqbO_6BZ-18">
          <mxGeometry relative="1" as="geometry">
            <Array as="points">
              <mxPoint x="540" y="188" />
              <mxPoint x="540" y="635" />
            </Array>
          </mxGeometry>
        </mxCell>
        <mxCell id="ewwvXswswTvvcqbO_6BZ-94" style="edgeStyle=orthogonalEdgeStyle;rounded=0;orthogonalLoop=1;jettySize=auto;html=1;dashed=1;dashPattern=8 8;" edge="1" parent="ewwvXswswTvvcqbO_6BZ-8" source="ewwvXswswTvvcqbO_6BZ-24" target="ewwvXswswTvvcqbO_6BZ-64">
          <mxGeometry relative="1" as="geometry" />
        </mxCell>
        <mxCell id="ewwvXswswTvvcqbO_6BZ-95" style="edgeStyle=orthogonalEdgeStyle;rounded=0;orthogonalLoop=1;jettySize=auto;html=1;entryX=0;entryY=0;entryDx=0;entryDy=165;entryPerimeter=0;exitX=0.5;exitY=1;exitDx=0;exitDy=0;exitPerimeter=0;dashed=1;dashPattern=8 8;" edge="1" parent="ewwvXswswTvvcqbO_6BZ-8" source="ewwvXswswTvvcqbO_6BZ-16" target="ewwvXswswTvvcqbO_6BZ-19">
          <mxGeometry relative="1" as="geometry" />
        </mxCell>
      </root>
    </mxGraphModel>
  </diagram>
</mxfile>
